# Blender v2.66 (sub 1) OBJ File: 'base.blend'
# www.blender.org
mtllib base.mtl
o Base
v -1.250000 -1.240000 5.010000
v -1.250000 -1.240000 6.740000
v -1.250000 1.240000 6.740000
v -1.250000 1.240000 5.010000
v -1.240000 1.250000 5.010000
v -1.240000 1.250000 6.740000
v 1.240000 1.250000 6.740000
v 1.240000 1.250000 5.010000
v 1.250000 1.240000 5.010000
v 1.250000 1.240000 6.740000
v 1.250000 -1.240000 6.740000
v 1.250000 -1.240000 5.010000
v 1.240000 -1.250000 5.010000
v 1.240000 -1.250000 6.740000
v -1.240000 -1.250000 6.740000
v -1.240000 -1.250000 5.010000
v 1.240000 -1.240000 5.000000
v -1.240000 -1.240000 5.000000
v -1.240000 1.240000 5.000000
v 1.240000 1.240000 5.000000
v -1.240000 -1.240000 6.750000
v 1.240000 -1.240000 6.750000
v 1.240000 1.240000 6.750000
v -1.240000 1.240000 6.750000
v -1.496489 -1.485890 3.009363
v -0.753511 -0.742913 4.990637
v -0.753511 0.742913 4.990637
v -1.496489 1.485890 3.009363
v -1.485890 1.496489 3.009363
v -0.742913 0.753511 4.990637
v 0.742913 0.753511 4.990637
v 1.485890 1.496489 3.009363
v 1.496489 1.485890 3.009363
v 0.753511 0.742913 4.990637
v 0.753511 -0.742913 4.990637
v 1.496489 -1.485890 3.009363
v 1.485890 -1.496489 3.009363
v 0.742913 -0.753511 4.990637
v -0.742913 -0.753511 4.990637
v -1.485890 -1.496489 3.009363
v 1.490000 -1.490000 3.000000
v -1.490000 -1.490000 3.000000
v -1.490000 1.490000 3.000000
v 1.490000 1.490000 3.000000
v -0.740000 -0.740000 5.000000
v 0.740000 -0.740000 5.000000
v 0.740000 0.740000 5.000000
v -0.740000 0.740000 5.000000
v -2.489998 2.490000 0.000000
v 2.489999 2.489999 0.000000
v 2.489999 -2.489999 0.000000
v -2.489999 -2.489998 0.000000
v 2.489997 -2.490000 3.000000
v 2.490000 2.489997 3.000000
v -2.489999 2.489999 3.000000
v -2.490000 -2.489998 3.000000
v 2.499999 -2.489999 0.010000
v 2.499999 2.489999 0.010000
v 2.500000 2.489997 2.990000
v 2.499997 -2.490000 2.990000
v -2.489999 -2.499998 0.010000
v 2.489999 -2.499999 0.010000
v 2.489997 -2.500000 2.990000
v -2.490000 -2.499998 2.990000
v -2.499998 2.490000 0.010000
v -2.499999 -2.489998 0.010000
v -2.500000 -2.489998 2.990000
v -2.499999 2.489999 2.990000
v -2.489999 2.499999 2.990000
v 2.490000 2.499997 2.990000
v 2.489999 2.499999 0.010000
v -2.489998 2.500000 0.010000
vt 0.000000 0.437500
vt 0.468750 0.437500
vt 0.000000 0.109375
vt 0.468750 0.109375
vt 0.000000 0.875000
vt 0.000000 1.000000
vt 0.125000 1.000000
vt 1.000000 0.125000
vt 1.000000 0.000000
vt 0.875000 0.000000
vt 0.687500 0.187500
vt 0.812500 0.187500
vt 0.625000 0.000000
vt 0.000000 0.000000
vt 0.875000 0.125000
vt 0.937500 1.000000
vt 0.937500 0.437500
vt 0.125000 0.875000
vn -1.000000 0.000000 0.000000
vn 0.000000 1.000000 -0.000000
vn 1.000000 0.000000 0.000000
vn 0.000000 -1.000000 0.000000
vn -0.000000 -0.000000 -1.000000
vn -0.000000 0.000000 1.000000
vn -0.936329 0.000000 0.351123
vn 0.000000 0.936329 0.351123
vn 0.936329 -0.000000 0.351123
vn 0.000000 -0.936329 0.351123
vn 1.000000 -0.000001 -0.000000
vn 0.707107 0.707107 0.000000
vn -0.707115 -0.000000 -0.707098
vn 0.000000 -0.707115 0.707098
vn 0.707107 -0.707107 0.000000
vn 0.000000 0.707115 -0.707098
vn -0.569590 0.000000 0.821929
vn 0.000000 0.707115 0.707098
vn 0.707115 0.000000 -0.707098
vn -0.707107 -0.707107 0.000000
vn 0.707115 -0.000000 0.707098
vn -0.707107 0.707107 0.000000
vn -0.000000 -0.707115 -0.707098
vn 0.577350 -0.577350 0.577350
vn -0.577350 0.577350 0.577350
vn -0.577350 -0.577350 0.577350
vn 0.577350 0.577350 0.577350
vn 0.577350 -0.577350 -0.577350
vn 0.624695 0.624695 0.468521
vn -0.577350 -0.577350 -0.577350
vn -0.821921 -0.000000 -0.569602
vn 0.000000 -0.569590 0.821929
vn 0.624695 -0.624695 0.468521
vn 0.443815 -0.443815 0.778496
vn 0.000000 0.821921 -0.569602
vn 0.707107 0.000000 -0.707106
vn -0.443815 0.443815 0.778496
vn 0.000000 0.569590 0.821929
vn 0.821921 0.000000 -0.569602
vn 0.443815 0.443815 0.778496
vn -0.624695 -0.624695 0.468522
vn 0.569590 -0.000000 0.821929
vn -0.443815 -0.443815 0.778496
vn -0.624695 0.624695 0.468522
vn 0.577350 0.577350 -0.577350
vn -0.577350 0.577350 -0.577350
vn -0.000000 -0.821921 -0.569602
vn 0.695963 -0.695963 -0.176835
vn -0.695963 -0.695963 -0.176835
vn 0.695963 0.695963 -0.176835
vn -0.577355 0.577355 -0.577341
vn 0.577355 0.577355 -0.577341
vn -0.577355 -0.577355 -0.577341
vn 0.577355 -0.577355 -0.577341
vn 0.577355 -0.577355 0.577341
vn -0.000000 -0.707107 -0.707106
vn 0.000000 0.707107 0.707107
vn 0.000000 0.707107 -0.707106
vn -0.577355 0.577355 0.577341
vn -0.707107 0.000000 -0.707106
vn -0.707107 0.000000 0.707107
vn 0.707107 -0.000000 0.707107
vn 0.577355 0.577355 0.577341
vn -0.577355 -0.577355 0.577341
vn -0.695963 0.695963 -0.176835
vn -0.000000 -0.707107 0.707107
vn -0.707115 0.000000 0.707098
vn 1.000000 0.000000 0.000001
vn -0.624695 -0.624695 0.468521
vn -0.624695 0.624695 0.468521
usemtl None
s off
f 2/1/1 3/2/1 1/3/1
f 6/1/2 7/2/2 8/4/2
f 10/2/3 11/1/3 12/3/3
f 14/2/4 15/1/4 16/3/4
f 18/5/5 19/6/5 20/7/5
f 22/8/6 23/9/6 24/10/6
f 26/11/7 27/12/7 25/13/7
f 30/11/8 31/12/8 32/10/8
f 34/12/9 35/11/9 36/13/9
f 38/12/10 39/11/10 40/13/10
f 42/14/5 43/14/5 44/14/5
f 46/14/6 47/14/6 48/14/6
f 50/8/5 51/15/5 49/9/5
f 54/8/6 55/15/6 56/10/6
f 58/1/11 59/6/11 60/16/11
f 62/1/4 63/6/4 61/17/4
f 66/1/1 67/6/1 65/17/1
f 70/6/2 71/1/2 72/17/2
f 8/4/12 7/2/12 10/2/12
f 1/3/13 4/4/13 18/5/13
f 15/1/14 14/2/14 22/8/14
f 12/3/15 11/1/15 14/2/15
f 5/3/16 8/4/16 20/7/16
f 27/12/17 26/11/17 48/14/17
f 24/10/18 23/9/18 7/2/18
f 17/18/19 20/7/19 9/4/19
f 2/1/20 1/3/20 15/1/20
f 23/9/21 22/8/21 11/1/21
f 4/4/22 3/2/22 5/3/22
f 18/5/23 17/18/23 13/4/23
f 53/9/24 63/6/24 60/16/24
f 68/16/25 55/15/25 69/16/25
f 67/6/26 64/16/26 56/10/26
f 70/6/27 54/8/27 59/6/27
f 57/17/28 62/1/28 51/15/28
f 32/10/29 31/12/29 34/12/29
f 61/17/30 66/1/30 52/10/30
f 25/13/31 28/10/31 42/14/31
f 39/11/32 38/12/32 46/14/32
f 36/13/33 35/11/33 38/12/33
f 38/12/34 35/11/34 46/14/34
f 29/13/35 32/10/35 44/14/35
f 51/15/36 50/8/36 58/1/36
f 30/11/37 27/12/37 48/14/37
f 48/14/38 47/14/38 31/12/38
f 41/14/39 44/14/39 33/10/39
f 34/12/40 31/12/40 47/14/40
f 26/11/41 25/13/41 39/11/41
f 47/14/42 46/14/42 35/11/42
f 26/11/43 39/11/43 45/14/43
f 28/10/44 27/12/44 29/13/44
f 50/8/45 71/1/45 58/1/45
f 65/17/46 72/17/46 49/9/46
f 42/14/47 41/14/47 37/10/47
f 61/17/20 64/16/20 66/1/20
f 37/10/48 41/14/48 36/13/48
f 40/13/49 25/13/49 42/14/49
f 33/10/50 44/14/50 32/10/50
f 5/3/51 19/6/51 4/4/51
f 9/4/52 20/7/52 8/4/52
f 16/3/53 1/3/53 18/5/53
f 13/4/54 17/18/54 12/3/54
f 14/2/55 11/1/55 22/8/55
f 52/10/56 51/15/56 61/17/56
f 55/15/57 54/8/57 70/6/57
f 50/8/58 49/9/58 72/17/58
f 6/1/59 3/2/59 24/10/59
f 66/1/60 65/17/60 52/10/60
f 68/16/61 67/6/61 55/15/61
f 57/17/15 60/16/15 63/6/15
f 54/8/62 53/9/62 60/16/62
f 69/16/22 72/17/22 68/16/22
f 10/2/63 7/2/63 23/9/63
f 2/1/64 15/1/64 21/15/64
f 29/13/65 43/14/65 28/10/65
f 71/1/12 70/6/12 59/6/12
f 53/9/66 56/10/66 63/6/66
f 3/2/67 2/1/67 24/10/67
f 3/2/1 4/4/1 1/3/1
f 5/3/2 6/1/2 8/4/2
f 9/4/3 10/2/3 12/3/3
f 13/4/4 14/2/4 16/3/4
f 17/18/5 18/5/5 20/7/5
f 21/15/6 22/8/6 24/10/6
f 27/12/7 28/10/7 25/13/7
f 29/13/8 30/11/8 32/10/8
f 33/10/9 34/12/9 36/13/9
f 37/10/10 38/12/10 40/13/10
f 41/14/5 42/14/5 44/14/5
f 45/14/6 46/14/6 48/14/6
f 51/15/5 52/10/5 49/9/5
f 53/9/6 54/8/6 56/10/6
f 57/17/68 58/1/68 60/16/68
f 63/6/4 64/16/4 61/17/4
f 67/6/1 68/16/1 65/17/1
f 69/16/2 70/6/2 72/17/2
f 9/4/12 8/4/12 10/2/12
f 4/4/13 19/6/13 18/5/13
f 21/15/14 15/1/14 22/8/14
f 13/4/15 12/3/15 14/2/15
f 19/6/16 5/3/16 20/7/16
f 26/11/17 45/14/17 48/14/17
f 6/1/18 24/10/18 7/2/18
f 12/3/19 17/18/19 9/4/19
f 1/3/20 16/3/20 15/1/20
f 10/2/21 23/9/21 11/1/21
f 3/2/22 6/1/22 5/3/22
f 16/3/23 18/5/23 13/4/23
f 33/10/29 32/10/29 34/12/29
f 28/10/31 43/14/31 42/14/31
f 45/14/32 39/11/32 46/14/32
f 37/10/33 36/13/33 38/12/33
f 43/14/35 29/13/35 44/14/35
f 57/17/36 51/15/36 58/1/36
f 30/11/38 48/14/38 31/12/38
f 36/13/39 41/14/39 33/10/39
f 25/13/69 40/13/69 39/11/69
f 34/12/42 47/14/42 35/11/42
f 27/12/70 30/11/70 29/13/70
f 40/13/47 42/14/47 37/10/47
f 64/16/20 67/6/20 66/1/20
f 51/15/56 62/1/56 61/17/56
f 69/16/57 55/15/57 70/6/57
f 71/1/58 50/8/58 72/17/58
f 65/17/60 49/9/60 52/10/60
f 67/6/61 56/10/61 55/15/61
f 62/1/15 57/17/15 63/6/15
f 59/6/62 54/8/62 60/16/62
f 72/17/22 65/17/22 68/16/22
f 58/1/12 71/1/12 59/6/12
f 56/10/66 64/16/66 63/6/66
f 2/1/67 21/15/67 24/10/67
