# Blender v2.66 (sub 1) OBJ File: 'uzi.blend'
# www.blender.org
mtllib uzi.mtl
o Barrel
v 0.000000 -0.387500 0.595000
v 0.000000 -0.562500 0.595000
v 0.028701 -0.387500 0.589291
v 0.028701 -0.562500 0.589291
v 0.053033 -0.387500 0.573033
v 0.053033 -0.562500 0.573033
v 0.069291 -0.387500 0.548701
v 0.069291 -0.562500 0.548701
v 0.075000 -0.387500 0.520000
v 0.075000 -0.562500 0.520000
v 0.069291 -0.387500 0.491299
v 0.069291 -0.562500 0.491299
v 0.053033 -0.387500 0.466967
v 0.053033 -0.562500 0.466967
v 0.028701 -0.387500 0.450709
v 0.028701 -0.562500 0.450709
v 0.000000 -0.387500 0.445000
v 0.000000 -0.562500 0.445000
v -0.028701 -0.387500 0.450709
v -0.028701 -0.562500 0.450709
v -0.053033 -0.387500 0.466967
v -0.053033 -0.562500 0.466967
v -0.069291 -0.387500 0.491299
v -0.069291 -0.562500 0.491299
v -0.075000 -0.387500 0.520000
v -0.075000 -0.562500 0.520000
v -0.069291 -0.387500 0.548701
v -0.069291 -0.562500 0.548701
v -0.053033 -0.387500 0.573033
v -0.053033 -0.562500 0.573033
v -0.028701 -0.387500 0.589291
v -0.028701 -0.562500 0.589291
v 0.000000 -0.387500 0.576251
v 0.000000 -0.562500 0.576250
v 0.021526 -0.387500 0.571969
v 0.021526 -0.562500 0.571969
v 0.039775 -0.387500 0.559775
v 0.039775 -0.562500 0.559775
v 0.051969 -0.387500 0.541526
v 0.051969 -0.562500 0.541526
v 0.056250 -0.387500 0.520000
v 0.056250 -0.562500 0.520000
v 0.051969 -0.387500 0.498474
v 0.051969 -0.562500 0.498474
v 0.039775 -0.387500 0.480225
v 0.039775 -0.562500 0.480225
v 0.021526 -0.387500 0.468031
v 0.021526 -0.562500 0.468031
v 0.000000 -0.387500 0.463750
v 0.000000 -0.562500 0.463750
v -0.021526 -0.387500 0.468031
v -0.021526 -0.562500 0.468031
v -0.039775 -0.387500 0.480225
v -0.039775 -0.562500 0.480225
v -0.051969 -0.387500 0.498474
v -0.051969 -0.562500 0.498474
v -0.056250 -0.387500 0.520000
v -0.056250 -0.562500 0.520000
v -0.051969 -0.387500 0.541526
v -0.051969 -0.562500 0.541526
v -0.039775 -0.387500 0.559775
v -0.039775 -0.562500 0.559775
v -0.021526 -0.387500 0.571969
v -0.021526 -0.562500 0.571969
vn 0.000000 0.665700 0.746178
vn 0.000000 -0.665700 0.746178
vn 0.285531 -0.665700 0.689383
vn 0.285531 0.665700 0.689383
vn 0.527635 -0.665700 0.527635
vn 0.527635 0.665700 0.527635
vn 0.689383 -0.665700 0.285531
vn 0.689383 0.665700 0.285531
vn 0.746178 -0.665700 0.000000
vn 0.746178 0.665700 0.000000
vn 0.689383 -0.665700 -0.285531
vn 0.689383 0.665700 -0.285531
vn 0.527635 -0.665700 -0.527635
vn 0.527635 0.665700 -0.527635
vn 0.285531 -0.665700 -0.689383
vn 0.285531 0.665700 -0.689383
vn 0.000000 -0.665700 -0.746178
vn 0.000000 0.665700 -0.746178
vn -0.285531 0.665700 -0.689383
vn -0.285531 -0.665700 -0.689383
vn -0.527635 0.665700 -0.527635
vn -0.527635 -0.665700 -0.527635
vn -0.689383 0.665700 -0.285531
vn -0.689383 -0.665700 -0.285531
vn -0.746178 0.665700 0.000000
vn -0.746178 -0.665700 0.000000
vn -0.689383 0.665700 0.285531
vn -0.689383 -0.665700 0.285531
vn -0.527635 0.665700 0.527635
vn -0.285531 0.665700 0.689383
vn -0.285531 -0.665700 0.689383
vn -0.527635 -0.665700 0.527635
vn -0.251473 0.753746 -0.607105
vn -0.251473 -0.753746 -0.607105
vn 0.000000 0.753746 -0.657125
vn -0.464644 0.753746 -0.464644
vn -0.464644 -0.753746 -0.464644
vn -0.607105 0.753746 -0.251442
vn -0.607105 -0.753746 -0.251442
vn -0.657125 0.753746 0.000000
vn -0.657125 -0.753746 0.000000
vn -0.607105 0.753746 0.251442
vn -0.607105 -0.753746 0.251442
vn -0.464644 0.753746 0.464644
vn -0.464644 -0.753746 0.464644
vn -0.251442 0.753746 0.607105
vn -0.251442 -0.753746 0.607105
vn 0.000000 0.753746 0.657125
vn 0.000000 -0.753746 0.657125
vn 0.251442 0.753746 0.607105
vn 0.251442 -0.753746 0.607105
vn 0.464644 0.753746 0.464644
vn 0.464644 -0.753746 0.464644
vn 0.607105 0.753746 0.251442
vn 0.607105 -0.753746 0.251442
vn 0.657125 0.753746 0.000000
vn 0.657125 -0.753746 0.000000
vn 0.607105 0.753746 -0.251442
vn 0.607105 -0.753746 -0.251442
vn 0.464644 0.753746 -0.464644
vn 0.464644 -0.753746 -0.464644
vn 0.000000 -0.753746 -0.657125
vn 0.251473 -0.753746 -0.607105
vn 0.251473 0.753746 -0.607105
usemtl Chrome
s 1
f 1//1 2//2 4//3
f 3//4 4//3 6//5
f 5//6 6//5 8//7
f 7//8 8//7 10//9
f 9//10 10//9 12//11
f 11//12 12//11 14//13
f 13//14 14//13 16//15
f 15//16 16//15 18//17
f 17//18 18//17 19//19
f 19//19 20//20 21//21
f 21//21 22//22 23//23
f 23//23 24//24 25//25
f 25//25 26//26 27//27
f 27//27 28//28 29//29
f 31//30 32//31 1//1
f 29//29 30//32 31//30
f 35//33 36//34 33//35
f 37//36 38//37 35//33
f 39//38 40//39 37//36
f 41//40 42//41 39//38
f 43//42 44//43 41//40
f 45//44 46//45 43//42
f 47//46 48//47 45//44
f 49//48 50//49 47//46
f 51//50 52//51 50//49
f 53//52 54//53 52//51
f 55//54 56//55 54//53
f 57//56 58//57 56//55
f 59//58 60//59 58//57
f 61//60 62//61 60//59
f 33//35 34//62 64//63
f 63//64 64//63 62//61
f 6//5 4//3 38//37
f 13//14 15//16 45//44
f 7//8 9//10 41//40
f 28//28 26//26 60//59
f 18//17 16//15 48//47
f 4//3 2//2 36//34
f 5//6 7//8 39//38
f 11//12 13//14 45//44
f 25//25 27//27 59//58
f 10//9 8//7 40//39
f 19//19 21//21 53//52
f 32//31 30//32 64//63
f 16//15 14//13 46//45
f 22//22 20//20 54//53
f 23//23 25//25 55//54
f 15//16 17//18 47//46
f 17//18 19//19 51//50
f 8//7 6//5 38//37
f 27//27 29//29 61//60
f 12//11 10//9 44//43
f 1//1 3//4 33//35
f 14//13 12//11 44//43
f 2//2 32//31 34//62
f 31//30 1//1 63//64
f 30//32 28//28 62//61
f 24//24 22//22 54//53
f 20//20 18//17 52//51
f 21//21 23//23 55//54
f 9//10 11//12 43//42
f 26//26 24//24 56//55
f 29//29 31//30 61//60
f 3//4 5//6 37//36
f 3//4 1//1 4//3
f 5//6 3//4 6//5
f 7//8 5//6 8//7
f 9//10 7//8 10//9
f 11//12 9//10 12//11
f 13//14 11//12 14//13
f 15//16 13//14 16//15
f 17//18 15//16 18//17
f 18//17 20//20 19//19
f 20//20 22//22 21//21
f 22//22 24//24 23//23
f 24//24 26//26 25//25
f 26//26 28//28 27//27
f 28//28 30//32 29//29
f 32//31 2//2 1//1
f 30//32 32//31 31//30
f 36//34 34//62 33//35
f 38//37 36//34 35//33
f 40//39 38//37 37//36
f 42//41 40//39 39//38
f 44//43 42//41 41//40
f 46//45 44//43 43//42
f 48//47 46//45 45//44
f 50//49 48//47 47//46
f 49//48 51//50 50//49
f 51//50 53//52 52//51
f 53//52 55//54 54//53
f 55//54 57//56 56//55
f 57//56 59//58 58//57
f 59//58 61//60 60//59
f 63//64 33//35 64//63
f 61//60 63//64 62//61
f 4//3 36//34 38//37
f 15//16 47//46 45//44
f 39//38 7//8 41//40
f 26//26 58//57 60//59
f 50//49 18//17 48//47
f 2//2 34//62 36//34
f 37//36 5//6 39//38
f 43//42 11//12 45//44
f 57//56 25//25 59//58
f 42//41 10//9 40//39
f 51//50 19//19 53//52
f 30//32 62//61 64//63
f 48//47 16//15 46//45
f 20//20 52//51 54//53
f 25//25 57//56 55//54
f 17//18 49//48 47//46
f 49//48 17//18 51//50
f 40//39 8//7 38//37
f 59//58 27//27 61//60
f 10//9 42//41 44//43
f 3//4 35//33 33//35
f 46//45 14//13 44//43
f 32//31 64//63 34//62
f 1//1 33//35 63//64
f 28//28 60//59 62//61
f 56//55 24//24 54//53
f 18//17 50//49 52//51
f 53//52 21//21 55//54
f 41//40 9//10 43//42
f 58//57 26//26 56//55
f 31//30 63//64 61//60
f 35//33 3//4 37//36
o Gun
v -0.100000 0.205000 0.305000
v -0.100000 0.205000 0.615000
v -0.100000 0.245000 0.615000
v -0.100000 0.245000 0.305000
v -0.095000 0.250000 0.305000
v -0.095000 0.250000 0.615000
v 0.095000 0.250000 0.615000
v 0.095000 0.250000 0.305000
v 0.100000 0.245000 0.305000
v 0.100000 0.245000 0.615000
v 0.100000 0.205000 0.615000
v 0.100000 0.205000 0.305000
v 0.095000 0.200000 0.305000
v 0.095000 0.200000 0.615000
v -0.095000 0.200000 0.615000
v -0.095000 0.200000 0.305000
v 0.095000 0.205000 0.300000
v -0.095000 0.205000 0.300000
v -0.095000 0.245000 0.300000
v 0.095000 0.245000 0.300000
v -0.095000 0.205000 0.620000
v 0.095000 0.205000 0.620000
v 0.095000 0.245000 0.620000
v -0.095000 0.245000 0.620000
v -0.075000 -0.070000 0.005000
v -0.075000 -0.070000 0.315000
v -0.075000 0.070000 0.315000
v -0.075000 0.070000 0.005000
v -0.070000 0.075000 0.005000
v -0.070000 0.075000 0.315000
v 0.070000 0.075000 0.315000
v 0.070000 0.075000 0.005000
v 0.075000 0.070000 0.005000
v 0.075000 0.070000 0.315000
v 0.075000 -0.070000 0.315000
v 0.075000 -0.070000 0.005000
v 0.070000 -0.075000 0.005000
v 0.070000 -0.075000 0.315000
v -0.070000 -0.075000 0.315000
v -0.070000 -0.075000 0.005000
v 0.070000 -0.070000 0.000000
v -0.070000 -0.070000 0.000000
v -0.070000 0.070000 0.000000
v 0.070000 0.070000 0.000000
v -0.070000 -0.070000 0.320000
v 0.070000 -0.070000 0.320000
v 0.070000 0.070000 0.320000
v -0.070000 0.070000 0.320000
v -0.095000 0.195000 0.320000
v 0.095000 0.195000 0.320000
v 0.095000 -0.395000 0.320000
v -0.095000 -0.395000 0.320000
v 0.095000 -0.395000 0.620000
v 0.095000 0.195000 0.620000
v -0.095000 0.195000 0.620000
v -0.095000 -0.395000 0.620000
v 0.100000 -0.395000 0.325000
v 0.100000 0.195000 0.325000
v 0.100000 0.195000 0.615000
v 0.100000 -0.395000 0.615000
v -0.095000 -0.400000 0.325000
v 0.095000 -0.400000 0.325000
v 0.095000 -0.400000 0.615000
v -0.095000 -0.400000 0.615000
v -0.100000 0.195000 0.325000
v -0.100000 -0.395000 0.325000
v -0.100000 -0.395000 0.615000
v -0.100000 0.195000 0.615000
v -0.095000 0.200000 0.615000
v 0.095000 0.200000 0.615000
v 0.095000 0.200000 0.325000
v -0.095000 0.200000 0.325000
vt 0.000000 0.421875
vt 0.000000 0.500000
vt 0.500000 0.421875
vt 0.250000 0.421875
vt 0.250000 0.265625
vt 0.500000 0.265625
vt 0.312500 0.500000
vt 0.312500 0.421875
vt 0.000000 0.187500
vt 0.500000 0.187500
vt 0.375000 0.406250
vt 0.375000 0.281250
vt 0.500000 0.406250
vt 1.000000 1.000000
vt 0.765625 1.000000
vt 0.765625 0.921875
vt 1.000000 0.921875
vt 1.000000 0.500000
vt 0.000000 1.000000
vt 1.000000 0.843750
vt 0.500000 0.500000
vt 0.000000 0.000000
vt 0.765625 0.843750
vt 0.500000 0.281250
vn -1.000000 0.000000 0.000000
vn 0.000000 1.000000 -0.000000
vn 1.000000 0.000000 0.000000
vn 0.000000 -1.000000 0.000000
vn -0.000000 -0.000000 -1.000000
vn -0.000000 0.000000 1.000000
vn -0.000000 -1.000000 -0.000001
vn 0.707106 0.707107 0.000000
vn -0.707106 -0.000000 -0.707107
vn 0.000000 -0.707107 0.707107
vn 0.707106 -0.707107 0.000000
vn 0.000000 0.707107 -0.707107
vn -0.707106 0.000000 0.707107
vn 0.000000 0.707107 0.707107
vn 0.707106 0.000000 -0.707107
vn -0.707106 -0.707107 0.000000
vn 0.707106 -0.000000 0.707107
vn -0.707106 0.707107 0.000000
vn -0.000000 -0.707107 -0.707107
vn 0.577350 -0.577350 0.577350
vn -0.577349 0.577350 0.577352
vn -0.577350 -0.577351 0.577351
vn 0.577350 0.577351 0.577351
vn 0.577350 -0.577351 -0.577351
vn 0.707107 0.707107 0.000000
vn -0.577350 -0.577351 -0.577351
vn 0.000000 -0.707106 0.707107
vn 0.707107 -0.707107 0.000000
vn 0.577350 -0.577350 0.577351
vn 0.000000 0.707106 -0.707107
vn -0.577350 0.577350 0.577351
vn 0.577350 0.577350 0.577351
vn -0.707107 -0.707107 0.000000
vn -0.577350 -0.577350 0.577351
vn -0.707107 0.707107 0.000000
vn 0.577350 0.577350 -0.577351
vn -0.577349 0.577350 -0.577352
vn -0.000000 -0.707106 -0.707107
vn 0.577350 -0.577350 -0.577351
vn -0.577350 -0.577350 -0.577351
vn -0.577350 0.577351 -0.577351
vn 0.577350 0.577351 -0.577351
vn 0.577350 -0.577351 0.577351
vn 0.000000 0.707106 -0.707108
vn -0.577350 0.577351 0.577351
vn 0.707107 -0.000000 0.707107
vn -0.577350 0.577350 -0.577351
vn -0.000001 -0.707107 0.707107
vn -0.000002 -1.000000 0.000000
vn 0.000001 0.707106 0.707108
vn 0.000001 1.000000 0.000001
vn 0.000000 0.707106 0.707107
vn 0.000001 1.000000 0.000000
usemtl None
s off
f 66/1/65 67/2/65 65/3/65
f 70/4/66 71/5/66 72/6/66
f 74/2/67 75/1/67 76/3/67
f 78/4/68 79/5/68 80/6/68
f 82/1/69 83/2/69 84/7/69
f 86/8/70 87/7/70 88/2/70
f 90/1/65 91/9/65 89/3/65
f 94/1/66 95/9/66 96/10/66
f 98/1/67 99/9/67 100/10/67
f 102/1/68 103/9/68 104/10/68
f 106/11/69 107/12/69 105/13/69
f 114/14/69 115/15/69 116/16/69
f 118/17/70 119/14/70 120/15/70
f 122/18/67 123/14/67 124/19/67
f 126/14/71 127/15/71 125/20/71
f 130/2/65 131/19/65 129/18/65
f 72/6/72 71/5/72 74/2/72
f 65/3/73 68/21/73 82/1/73
f 79/5/74 78/4/74 86/8/74
f 76/3/75 75/1/75 78/4/75
f 69/3/76 72/6/76 84/7/76
f 91/9/77 90/1/77 112/22/77
f 88/2/78 87/7/78 71/5/78
f 81/8/79 84/7/79 73/21/79
f 66/1/80 65/3/80 79/5/80
f 87/7/81 86/8/81 75/1/81
f 68/21/82 67/2/82 69/3/82
f 82/1/83 81/8/83 77/3/83
f 117/16/84 127/15/84 124/19/84
f 132/14/85 119/14/85 133/22/85
f 131/19/86 128/23/86 120/15/86
f 134/22/87 118/17/87 123/14/87
f 121/2/88 126/14/88 115/15/88
f 96/10/89 95/9/89 98/1/89
f 125/20/90 130/2/90 116/16/90
f 89/3/73 92/10/73 106/11/73
f 103/9/91 102/1/91 110/22/91
f 100/10/92 99/9/92 102/1/92
f 102/1/93 99/9/93 110/22/93
f 93/3/94 96/10/94 107/12/94
f 115/15/79 114/14/79 122/18/79
f 94/1/95 91/9/95 112/22/95
f 105/13/79 108/24/79 97/3/79
f 98/1/96 95/9/96 111/22/96
f 90/1/97 89/3/97 103/9/97
f 90/1/98 103/9/98 109/22/98
f 92/10/99 91/9/99 93/3/99
f 114/14/100 135/22/100 122/18/100
f 129/18/101 136/22/101 113/17/101
f 106/11/102 105/13/102 104/10/102
f 125/20/80 128/23/80 130/2/80
f 101/3/103 105/13/103 100/10/103
f 104/10/104 89/3/104 106/11/104
f 97/3/100 108/24/100 96/10/100
f 69/3/105 83/2/105 68/21/105
f 73/21/106 84/7/106 72/6/106
f 80/6/90 65/3/90 82/1/90
f 77/3/88 81/8/88 76/3/88
f 78/4/107 75/1/107 86/8/107
f 116/16/83 115/15/83 125/20/83
f 119/14/78 118/17/78 134/22/78
f 114/14/108 113/17/108 136/22/108
f 70/4/109 67/2/109 88/2/109
f 130/2/73 129/18/73 116/16/73
f 132/14/77 131/19/77 119/14/77
f 121/2/92 124/19/92 127/15/92
f 118/17/110 117/16/110 124/19/110
f 74/2/87 71/5/87 87/7/87
f 66/1/86 79/5/86 85/1/86
f 93/3/111 107/12/111 92/10/111
f 117/16/112 120/15/112 127/15/112
f 67/2/77 66/1/77 88/2/77
f 67/2/65 68/21/65 65/3/65
f 69/3/66 70/4/66 72/6/66
f 73/21/67 74/2/67 76/3/67
f 77/3/68 78/4/68 80/6/68
f 81/8/69 82/1/69 84/7/69
f 85/1/70 86/8/70 88/2/70
f 91/9/65 92/10/65 89/3/65
f 93/3/66 94/1/66 96/10/66
f 97/3/67 98/1/67 100/10/67
f 101/3/68 102/1/68 104/10/68
f 107/12/69 108/24/69 105/13/69
f 113/17/69 114/14/69 116/16/69
f 117/16/70 118/17/70 120/15/70
f 121/2/67 122/18/67 124/19/67
f 127/15/113 128/23/113 125/20/113
f 131/19/65 132/14/65 129/18/65
f 73/21/72 72/6/72 74/2/72
f 68/21/73 83/2/73 82/1/73
f 85/1/74 79/5/74 86/8/74
f 77/3/75 76/3/75 78/4/75
f 83/2/76 69/3/76 84/7/76
f 90/1/77 109/22/77 112/22/77
f 70/4/78 88/2/78 71/5/78
f 76/3/79 81/8/79 73/21/79
f 65/3/80 80/6/80 79/5/80
f 74/2/81 87/7/81 75/1/81
f 67/2/82 70/4/82 69/3/82
f 80/6/83 82/1/83 77/3/83
f 97/3/89 96/10/89 98/1/89
f 92/10/73 107/12/73 106/11/73
f 109/22/91 103/9/91 110/22/91
f 101/3/92 100/10/92 102/1/92
f 96/10/94 108/24/94 107/12/94
f 121/2/79 115/15/79 122/18/79
f 100/10/79 105/13/79 97/3/79
f 89/3/97 104/10/97 103/9/97
f 91/9/99 94/1/99 93/3/99
f 105/13/102 101/3/102 104/10/102
f 128/23/80 131/19/80 130/2/80
f 115/15/83 126/14/83 125/20/83
f 133/22/114 119/14/114 134/22/114
f 135/22/76 114/14/76 136/22/76
f 129/18/73 113/17/73 116/16/73
f 131/19/77 120/15/77 119/14/77
f 126/14/75 121/2/75 127/15/75
f 123/14/81 118/17/81 124/19/81
f 120/15/112 128/23/112 127/15/112
f 66/1/77 85/1/77 88/2/77
usemtl (null)
f 110/22/70 111/22/70 112/22/70
f 134/22/115 135/22/115 136/22/115
f 112/22/116 111/22/116 95/9/116
f 111/22/81 110/22/81 99/9/81
f 133/22/82 136/22/82 132/14/82
f 135/22/72 134/22/72 123/14/72
f 109/22/70 110/22/70 112/22/70
f 133/22/117 134/22/117 136/22/117
f 94/1/116 112/22/116 95/9/116
f 98/1/81 111/22/81 99/9/81
f 136/22/82 129/18/82 132/14/82
f 122/18/89 135/22/89 123/14/89
